<svg xmlns="http://www.w3.org/2000/svg" xmlns:xlink="http://www.w3.org/1999/xlink" width="250" zoomAndPan="magnify" viewBox="0 0 187.5 74.999997" height="100" preserveAspectRatio="xMidYMid meet" version="1.0"><defs><g/><clipPath id="54248a3d5f"><path d="M 63.738281 19.550781 L 97.464844 19.550781 L 97.464844 51.800781 L 63.738281 51.800781 Z M 63.738281 19.550781 " clip-rule="nonzero"/></clipPath><clipPath id="c1881e5d5d"><path d="M 126.757812 26.226562 L 160.488281 26.226562 L 160.488281 58.476562 L 126.757812 58.476562 Z M 126.757812 26.226562 " clip-rule="nonzero"/></clipPath><clipPath id="2726103d57"><path d="M 165 31 L 187 31 L 187 74 L 165 74 Z M 165 31 " clip-rule="nonzero"/></clipPath></defs><g clip-path="url(#54248a3d5f)"><path fill="#b69260" d="M 77.367188 19.984375 C 80.097656 19.546875 82.976562 19.09375 86.742188 20.503906 C 89.769531 21.640625 92.402344 24.484375 94.578125 27.03125 C 97.164062 30.054688 97.726562 32.957031 97.367188 36.753906 C 97.050781 40.121094 97.050781 44.414062 94.503906 46.773438 C 90.496094 50.476562 86.179688 51.515625 81.863281 51.757812 C 77.492188 52 72.777344 51.273438 70.007812 48.519531 C 67.996094 46.523438 65.804688 43.644531 64.808594 41.605469 C 63.074219 38.058594 63.683594 35.210938 64.957031 31.214844 C 65.972656 28.039062 67.660156 25.964844 69.777344 24.074219 C 72.042969 22.054688 75.398438 20.300781 77.367188 19.984375 " fill-opacity="1" fill-rule="nonzero"/></g><g clip-path="url(#c1881e5d5d)"><path fill="#b69260" d="M 140.390625 26.660156 C 143.121094 26.21875 146 25.769531 149.765625 27.179688 C 152.792969 28.316406 155.425781 31.160156 157.601562 33.707031 C 160.1875 36.730469 160.746094 39.632812 160.390625 43.429688 C 160.074219 46.792969 160.074219 51.089844 157.523438 53.449219 C 153.519531 57.152344 149.199219 58.191406 144.886719 58.429688 C 140.515625 58.675781 135.796875 57.945312 133.027344 55.195312 C 131.019531 53.199219 128.828125 50.320312 127.828125 48.28125 C 126.097656 44.734375 126.703125 41.886719 127.980469 37.886719 C 128.992188 34.714844 130.683594 32.636719 132.800781 30.75 C 135.066406 28.730469 138.417969 26.976562 140.390625 26.660156 " fill-opacity="1" fill-rule="nonzero"/></g><g fill="#ffffff" fill-opacity="1"><g transform="translate(0.686583, 65.765557)"><g><path d="M 26.3125 -0.515625 C 25.445312 0.296875 24.609375 0.207031 23.796875 -0.78125 C 23.265625 -1.363281 22.851562 -2.175781 22.5625 -3.21875 C 22.21875 -4.4375 21.988281 -5.976562 21.875 -7.84375 C 21.695312 -11.851562 21.867188 -15.800781 22.390625 -19.6875 C 23.378906 -27.070312 24.804688 -35.378906 26.671875 -44.609375 L 28.328125 -51.5 L 28.328125 -52.28125 C 28.203125 -52.226562 27.96875 -51.9375 27.625 -51.40625 C 21.695312 -39.789062 18.15625 -32.851562 17 -30.59375 C 13.15625 -23.207031 9.867188 -17.078125 7.140625 -12.203125 C 6.273438 -10.628906 5.492188 -9.410156 4.796875 -8.546875 C 4.390625 -7.960938 3.984375 -7.550781 3.578125 -7.3125 C 3.046875 -6.96875 2.546875 -6.867188 2.078125 -7.015625 C 1.617188 -7.160156 1.304688 -7.523438 1.140625 -8.109375 C 0.960938 -8.742188 0.875 -9.320312 0.875 -9.84375 C 0.8125 -11.351562 0.957031 -12.984375 1.3125 -14.734375 C 2.582031 -21.296875 3.972656 -26.609375 5.484375 -30.671875 C 7.929688 -37.347656 11.1875 -43.160156 15.25 -48.109375 C 16.875 -50.191406 18.734375 -51.90625 20.828125 -53.25 C 21.640625 -53.820312 22.484375 -54.226562 23.359375 -54.46875 C 24.867188 -54.925781 26.054688 -54.488281 26.921875 -53.15625 L 27.28125 -52.453125 C 27.445312 -52.742188 27.644531 -53.117188 27.875 -53.578125 C 28.113281 -54.046875 28.320312 -54.398438 28.5 -54.640625 C 28.726562 -55.097656 28.929688 -55.414062 29.109375 -55.59375 C 29.273438 -55.820312 29.476562 -55.878906 29.71875 -55.765625 C 29.945312 -55.710938 30.0625 -55.539062 30.0625 -55.25 C 30.0625 -54.84375 30.03125 -54.550781 29.96875 -54.375 L 28.40625 -46.703125 C 28.351562 -46.472656 27.570312 -42.320312 26.0625 -34.25 C 26 -33.957031 25.765625 -32.578125 25.359375 -30.109375 C 24.953125 -27.640625 24.660156 -25.738281 24.484375 -24.40625 C 23.554688 -17.539062 23.179688 -12.394531 23.359375 -8.96875 C 23.472656 -6.59375 23.675781 -4.820312 23.96875 -3.65625 C 24.195312 -2.726562 24.457031 -2.0625 24.75 -1.65625 C 25.09375 -1.25 25.441406 -1.21875 25.796875 -1.5625 C 26.085938 -1.851562 26.40625 -2.234375 26.75 -2.703125 C 27.675781 -4.035156 28.488281 -5.457031 29.1875 -6.96875 L 35.8125 -22.484375 L 37.90625 -26.921875 C 37.96875 -27.097656 38.171875 -27.359375 38.515625 -27.703125 L 38.859375 -27.703125 C 38.921875 -27.648438 38.953125 -27.59375 38.953125 -27.53125 C 38.890625 -27.476562 38.859375 -27.378906 38.859375 -27.234375 C 38.859375 -27.085938 38.832031 -26.984375 38.78125 -26.921875 L 30.9375 -8.28125 C 29.769531 -5.550781 28.632812 -3.457031 27.53125 -2 C 27.070312 -1.300781 26.664062 -0.804688 26.3125 -0.515625 Z M 2.78125 -8.28125 C 3.019531 -8.28125 3.226562 -8.367188 3.40625 -8.546875 C 4.039062 -9.003906 4.585938 -9.671875 5.046875 -10.546875 L 7.9375 -15.25 C 11.125 -21 15.21875 -28.753906 20.21875 -38.515625 C 21.957031 -41.941406 23.929688 -45.75 26.140625 -49.9375 C 26.609375 -50.800781 26.519531 -51.640625 25.875 -52.453125 C 25.414062 -53.097656 24.804688 -53.332031 24.046875 -53.15625 C 23.523438 -53.039062 22.800781 -52.691406 21.875 -52.109375 C 20.007812 -50.890625 18.296875 -49.265625 16.734375 -47.234375 C 12.660156 -42.117188 9.460938 -36.363281 7.140625 -29.96875 C 5.691406 -25.726562 4.210938 -20.066406 2.703125 -12.984375 C 2.640625 -12.640625 2.566406 -12.117188 2.484375 -11.421875 C 2.398438 -10.722656 2.328125 -10.195312 2.265625 -9.84375 L 2.359375 -9.84375 L 2.359375 -8.96875 C 2.359375 -8.5625 2.5 -8.332031 2.78125 -8.28125 Z M 2.78125 -8.28125 "/></g></g></g><g fill="#ffffff" fill-opacity="1"><g transform="translate(37.892778, 65.765557)"><g><path d="M 2.265625 -22.75 C 1.566406 -22.34375 1.046875 -22.515625 0.703125 -23.265625 C 0.523438 -23.554688 0.4375 -23.847656 0.4375 -24.140625 C 0.4375 -25.535156 0.671875 -26.785156 1.140625 -27.890625 L 1.390625 -28.140625 C 1.566406 -28.316406 1.828125 -28.378906 2.171875 -28.328125 C 2.347656 -28.265625 2.4375 -28.054688 2.4375 -27.703125 C 2.4375 -27.296875 2.378906 -26.804688 2.265625 -26.234375 C 2.265625 -26.054688 2.25 -25.835938 2.21875 -25.578125 C 2.1875 -25.316406 2.171875 -25.128906 2.171875 -25.015625 C 2.171875 -24.835938 2.234375 -24.75 2.359375 -24.75 L 2.703125 -24.75 C 3.109375 -25.15625 3.71875 -25.9375 4.53125 -27.09375 C 5.519531 -28.726562 6.535156 -30.125 7.578125 -31.28125 C 7.816406 -31.570312 8.164062 -31.953125 8.625 -32.421875 C 8.738281 -32.585938 8.972656 -32.789062 9.328125 -33.03125 C 10.253906 -33.664062 10.804688 -33.460938 10.984375 -32.421875 C 11.035156 -32.179688 11.078125 -31.828125 11.109375 -31.359375 C 11.140625 -30.898438 11.15625 -30.613281 11.15625 -30.5 L 10.625 -25.796875 C 10.570312 -25.554688 10.546875 -25.175781 10.546875 -24.65625 C 10.546875 -24.363281 10.601562 -24.1875 10.71875 -24.125 C 10.832031 -24.070312 11.003906 -24.164062 11.234375 -24.40625 C 11.359375 -24.570312 11.5625 -24.84375 11.84375 -25.21875 C 12.132812 -25.601562 12.34375 -25.882812 12.46875 -26.0625 C 13.15625 -26.875 13.820312 -27.453125 14.46875 -27.796875 C 15.28125 -28.203125 16.003906 -28.085938 16.640625 -27.453125 L 17.34375 -26.671875 C 17.800781 -26.140625 18.351562 -25.726562 19 -25.4375 C 19.695312 -25.15625 20.421875 -25.1875 21.171875 -25.53125 C 21.691406 -25.757812 22.390625 -26.253906 23.265625 -27.015625 C 23.492188 -27.191406 23.707031 -27.335938 23.90625 -27.453125 C 24.113281 -27.566406 24.257812 -27.625 24.34375 -27.625 C 24.4375 -27.625 24.515625 -27.59375 24.578125 -27.53125 C 24.628906 -27.238281 24.394531 -26.890625 23.875 -26.484375 C 23.289062 -25.910156 22.851562 -25.503906 22.5625 -25.265625 C 20.59375 -23.640625 18.59375 -23.84375 16.5625 -25.875 C 16.320312 -26.113281 16.03125 -26.460938 15.6875 -26.921875 C 15.507812 -27.160156 15.25 -27.21875 14.90625 -27.09375 C 14.207031 -26.8125 13.65625 -26.378906 13.25 -25.796875 C 13.070312 -25.617188 12.851562 -25.34375 12.59375 -24.96875 C 12.332031 -24.59375 12.144531 -24.316406 12.03125 -24.140625 C 11.675781 -23.671875 11.382812 -23.320312 11.15625 -23.09375 C 10.394531 -22.457031 9.898438 -22.601562 9.671875 -23.53125 C 9.609375 -23.757812 9.578125 -24.164062 9.578125 -24.75 L 9.84375 -27.625 C 9.957031 -28.320312 10.078125 -29.425781 10.203125 -30.9375 C 10.316406 -31.394531 10.285156 -31.800781 10.109375 -32.15625 C 9.992188 -32.382812 9.847656 -32.410156 9.671875 -32.234375 C 9.203125 -31.890625 8.796875 -31.484375 8.453125 -31.015625 C 7.523438 -30.035156 6.476562 -28.585938 5.3125 -26.671875 C 4.5 -25.390625 3.863281 -24.429688 3.40625 -23.796875 C 3.050781 -23.210938 2.671875 -22.863281 2.265625 -22.75 Z M 2.265625 -22.75 "/></g></g></g><g fill="#ffffff" fill-opacity="1"><g transform="translate(60.721868, 65.765557)"><g><path d="M 10.375 -23.96875 C 9.09375 -23.613281 8.363281 -24.101562 8.1875 -25.4375 C 8.132812 -26.132812 8.191406 -26.921875 8.359375 -27.796875 C 8.484375 -28.429688 8.515625 -28.835938 8.453125 -29.015625 C 8.335938 -29.015625 8.222656 -28.984375 8.109375 -28.921875 C 7.992188 -28.867188 7.90625 -28.8125 7.84375 -28.75 C 7.78125 -28.695312 7.707031 -28.625 7.625 -28.53125 C 7.539062 -28.445312 7.46875 -28.378906 7.40625 -28.328125 C 6.070312 -27.160156 4.851562 -26.316406 3.75 -25.796875 C 3.34375 -25.554688 2.9375 -25.351562 2.53125 -25.1875 C 1.945312 -25.007812 1.492188 -25.066406 1.171875 -25.359375 C 0.859375 -25.648438 0.757812 -26.085938 0.875 -26.671875 C 0.875 -26.785156 0.929688 -27.015625 1.046875 -27.359375 C 1.390625 -28.171875 1.910156 -28.835938 2.609375 -29.359375 C 3.828125 -30.234375 5.050781 -30.234375 6.28125 -29.359375 L 6.359375 -29.28125 L 6.453125 -29.28125 C 6.859375 -28.988281 7.207031 -28.988281 7.5 -29.28125 L 9.15625 -30.9375 C 9.4375 -31.164062 9.664062 -31.191406 9.84375 -31.015625 C 10.019531 -30.847656 10.050781 -30.707031 9.9375 -30.59375 C 9.875 -30.125 9.726562 -29.425781 9.5 -28.5 C 9.207031 -27.394531 9.09375 -26.375 9.15625 -25.4375 C 9.207031 -24.976562 9.492188 -24.773438 10.015625 -24.828125 C 10.890625 -24.953125 13.21875 -25.910156 17 -27.703125 C 17.226562 -27.703125 17.367188 -27.644531 17.421875 -27.53125 C 17.546875 -27.238281 17.40625 -26.976562 17 -26.75 C 13.976562 -25.238281 11.769531 -24.3125 10.375 -23.96875 Z M 2.96875 -26.3125 C 3.601562 -26.550781 4.269531 -26.875 4.96875 -27.28125 C 5.375 -27.5625 5.609375 -27.789062 5.671875 -27.96875 C 5.722656 -28.082031 5.644531 -28.179688 5.4375 -28.265625 C 5.238281 -28.359375 4.992188 -28.40625 4.703125 -28.40625 C 4.242188 -28.289062 3.894531 -28.175781 3.65625 -28.0625 C 2.957031 -27.539062 2.492188 -26.988281 2.265625 -26.40625 C 2.554688 -26.175781 2.789062 -26.144531 2.96875 -26.3125 Z M 2.96875 -26.3125 "/></g></g></g><g fill="#ffffff" fill-opacity="1"><g transform="translate(76.405982, 65.765557)"><g><path d="M 2.359375 -22.5625 C 1.710938 -22.039062 1.273438 -22.1875 1.046875 -23 C 0.867188 -23.582031 0.835938 -24.394531 0.953125 -25.4375 C 1.015625 -25.96875 1.160156 -26.609375 1.390625 -27.359375 C 1.503906 -27.710938 1.679688 -27.890625 1.921875 -27.890625 C 2.148438 -27.828125 2.265625 -27.59375 2.265625 -27.1875 C 2.148438 -26.71875 2.09375 -26.3125 2.09375 -25.96875 C 1.976562 -25.039062 1.976562 -24.34375 2.09375 -23.875 C 2.84375 -24.632812 3.363281 -25.1875 3.65625 -25.53125 C 4.707031 -26.570312 5.664062 -27.328125 6.53125 -27.796875 C 7.8125 -28.609375 9.0625 -28.550781 10.28125 -27.625 C 10.800781 -27.21875 11.46875 -26.664062 12.28125 -25.96875 C 12.75 -25.382812 13.632812 -25.191406 14.9375 -25.390625 C 16.25 -25.597656 17.410156 -25.863281 18.421875 -26.1875 C 19.441406 -26.507812 20.414062 -26.875 21.34375 -27.28125 C 21.519531 -27.394531 21.796875 -27.523438 22.171875 -27.671875 C 22.554688 -27.816406 22.832031 -27.914062 23 -27.96875 C 23.289062 -27.96875 23.492188 -27.878906 23.609375 -27.703125 C 23.671875 -27.585938 23.613281 -27.445312 23.4375 -27.28125 C 22.394531 -26.519531 21.128906 -25.832031 19.640625 -25.21875 C 18.160156 -24.613281 16.625 -24.191406 15.03125 -23.953125 C 13.4375 -23.722656 12.171875 -23.957031 11.234375 -24.65625 C 10.304688 -25.238281 9.640625 -25.707031 9.234375 -26.0625 C 8.535156 -26.519531 7.78125 -26.578125 6.96875 -26.234375 C 5.75 -25.535156 4.644531 -24.691406 3.65625 -23.703125 Z M 2.359375 -22.5625 "/></g></g></g><g fill="#ffffff" fill-opacity="1"><g transform="translate(98.276604, 65.765557)"><g/></g></g><g fill="#ffffff" fill-opacity="1"><g transform="translate(122.674107, 65.765557)"><g><path d="M 2.359375 0.171875 C 2.003906 0.234375 1.710938 0.0625 1.484375 -0.34375 C 1.304688 -0.8125 1.21875 -1.25 1.21875 -1.65625 C 0.988281 -4.207031 0.875 -6.125 0.875 -7.40625 C 1.332031 -13.269531 1.59375 -16.347656 1.65625 -16.640625 C 2.0625 -20.304688 2.582031 -24.113281 3.21875 -28.0625 L 5.578125 -41.5625 L 8.453125 -59.34375 C 8.515625 -59.75 8.585938 -60.34375 8.671875 -61.125 C 8.753906 -61.914062 8.828125 -62.515625 8.890625 -62.921875 C 8.890625 -63.265625 8.976562 -63.550781 9.15625 -63.78125 C 9.15625 -63.90625 9.269531 -63.96875 9.5 -63.96875 C 9.675781 -63.96875 9.820312 -63.90625 9.9375 -63.78125 C 10.164062 -63.375 10.28125 -62.910156 10.28125 -62.390625 C 10.28125 -60.535156 10.253906 -59.140625 10.203125 -58.203125 C 9.785156 -53.210938 8.941406 -46.765625 7.671875 -38.859375 C 7.023438 -35.316406 6.53125 -32.414062 6.1875 -30.15625 C 6.070312 -29.570312 6.015625 -29.101562 6.015625 -28.75 C 5.953125 -28.582031 5.976562 -28.46875 6.09375 -28.40625 C 6.21875 -28.351562 6.363281 -28.328125 6.53125 -28.328125 C 7.175781 -28.441406 7.523438 -28.757812 7.578125 -29.28125 L 8.890625 -34.5 C 10.578125 -40.375 12.085938 -44.765625 13.421875 -47.671875 C 14.347656 -49.753906 15.476562 -51.785156 16.8125 -53.765625 C 18.5 -56.203125 20.59375 -58.207031 23.09375 -59.78125 C 23.90625 -60.238281 24.515625 -60.554688 24.921875 -60.734375 C 26.835938 -61.378906 28.234375 -60.769531 29.109375 -58.90625 C 29.566406 -57.800781 29.796875 -56.671875 29.796875 -55.515625 C 29.972656 -53.179688 29.566406 -50.625 28.578125 -47.84375 C 27.359375 -44.757812 26.023438 -42 24.578125 -39.5625 C 21.722656 -34.5625 17.539062 -31.046875 12.03125 -29.015625 C 11.5 -28.835938 10.335938 -28.460938 8.546875 -27.890625 C 8.078125 -27.710938 7.8125 -27.445312 7.75 -27.09375 C 7.75 -26.976562 7.71875 -26.847656 7.65625 -26.703125 C 7.601562 -26.554688 7.578125 -26.457031 7.578125 -26.40625 C 7.460938 -25.476562 7.421875 -24.953125 7.453125 -24.828125 C 7.484375 -24.710938 7.816406 -24.394531 8.453125 -23.875 L 13.765625 -19.34375 C 14.816406 -18.414062 15.773438 -17.691406 16.640625 -17.171875 C 18.847656 -15.953125 21.085938 -15.75 23.359375 -16.5625 C 24.171875 -16.789062 25.273438 -17.3125 26.671875 -18.125 C 26.835938 -18.238281 27.253906 -18.523438 27.921875 -18.984375 C 28.597656 -19.453125 29.109375 -19.832031 29.453125 -20.125 C 30.734375 -21.113281 32.546875 -22.566406 34.890625 -24.484375 C 37.242188 -26.398438 38.597656 -27.503906 38.953125 -27.796875 C 39.128906 -27.972656 39.273438 -27.972656 39.390625 -27.796875 C 39.503906 -27.679688 39.503906 -27.566406 39.390625 -27.453125 C 39.210938 -27.210938 38.890625 -26.863281 38.421875 -26.40625 C 38.140625 -26.175781 36.878906 -25.128906 34.640625 -23.265625 C 32.398438 -21.410156 30.671875 -19.988281 29.453125 -19 C 27.648438 -17.539062 25.734375 -16.4375 23.703125 -15.6875 C 20.910156 -14.632812 18.265625 -14.925781 15.765625 -16.5625 C 14.609375 -17.375 13.769531 -18.007812 13.25 -18.46875 C 12.78125 -18.820312 12.296875 -19.210938 11.796875 -19.640625 C 11.304688 -20.078125 10.769531 -20.570312 10.1875 -21.125 C 9.613281 -21.675781 9.148438 -22.097656 8.796875 -22.390625 L 7.578125 -23.359375 C 7.234375 -23.585938 7.003906 -23.5 6.890625 -23.09375 C 6.890625 -22.863281 6.859375 -22.6875 6.796875 -22.5625 C 5.628906 -16.644531 4.703125 -11.332031 4.015625 -6.625 C 3.835938 -5.40625 3.515625 -3.578125 3.046875 -1.140625 C 3.046875 -1.078125 3.03125 -0.957031 3 -0.78125 C 2.976562 -0.601562 2.9375 -0.488281 2.875 -0.4375 C 2.8125 -0.144531 2.640625 0.0546875 2.359375 0.171875 Z M 8.796875 -29.015625 C 9.441406 -29.191406 10.804688 -29.6875 12.890625 -30.5 C 17.015625 -32.300781 20.382812 -35.085938 23 -38.859375 C 24.800781 -41.535156 26.457031 -44.847656 27.96875 -48.796875 C 28.550781 -50.421875 28.898438 -52.335938 29.015625 -54.546875 C 29.015625 -55.765625 28.898438 -56.8125 28.671875 -57.6875 C 28.492188 -58.269531 28.257812 -58.734375 27.96875 -59.078125 C 27.507812 -59.953125 26.726562 -60.300781 25.625 -60.125 C 24.976562 -59.945312 24.28125 -59.628906 23.53125 -59.171875 C 21.613281 -58.003906 19.898438 -56.492188 18.390625 -54.640625 C 17.046875 -52.953125 15.796875 -50.914062 14.640625 -48.53125 C 13.128906 -45.457031 11.707031 -41.65625 10.375 -37.125 C 10.082031 -36.195312 9.6875 -34.816406 9.1875 -32.984375 C 8.695312 -31.148438 8.394531 -30.03125 8.28125 -29.625 C 8.21875 -29.394531 8.226562 -29.222656 8.3125 -29.109375 C 8.40625 -28.992188 8.566406 -28.960938 8.796875 -29.015625 Z M 6.53125 -25.53125 L 6.796875 -25.703125 C 6.859375 -25.992188 6.945312 -26.375 7.0625 -26.84375 C 7.113281 -27.007812 7.066406 -27.132812 6.921875 -27.21875 C 6.773438 -27.3125 6.644531 -27.332031 6.53125 -27.28125 C 6.125 -27.15625 5.894531 -27.007812 5.84375 -26.84375 C 5.664062 -26.550781 5.632812 -26.289062 5.75 -26.0625 C 5.925781 -25.769531 6.1875 -25.59375 6.53125 -25.53125 Z M 3.921875 -10.71875 C 4.035156 -11.1875 4.191406 -11.984375 4.390625 -13.109375 C 4.597656 -14.242188 4.757812 -15.101562 4.875 -15.6875 C 5.050781 -16.613281 5.296875 -17.929688 5.609375 -19.640625 C 5.929688 -21.359375 6.179688 -22.597656 6.359375 -23.359375 C 6.472656 -23.765625 6.488281 -24.039062 6.40625 -24.1875 C 6.320312 -24.332031 6.046875 -24.519531 5.578125 -24.75 C 5.460938 -24.632812 5.40625 -24.546875 5.40625 -24.484375 L 5.140625 -23.609375 C 5.023438 -22.273438 4.804688 -20.300781 4.484375 -17.6875 C 4.171875 -15.070312 3.925781 -13.125 3.75 -11.84375 L 3.75 -10.890625 L 3.828125 -10.890625 Z M 3.921875 -10.71875 "/></g></g></g><g fill="#ffffff" fill-opacity="1"><g transform="translate(160.403103, 65.765557)"><g><path d="M 10.375 -23.96875 C 9.09375 -23.613281 8.363281 -24.101562 8.1875 -25.4375 C 8.132812 -26.132812 8.191406 -26.921875 8.359375 -27.796875 C 8.484375 -28.429688 8.515625 -28.835938 8.453125 -29.015625 C 8.335938 -29.015625 8.222656 -28.984375 8.109375 -28.921875 C 7.992188 -28.867188 7.90625 -28.8125 7.84375 -28.75 C 7.78125 -28.695312 7.707031 -28.625 7.625 -28.53125 C 7.539062 -28.445312 7.46875 -28.378906 7.40625 -28.328125 C 6.070312 -27.160156 4.851562 -26.316406 3.75 -25.796875 C 3.34375 -25.554688 2.9375 -25.351562 2.53125 -25.1875 C 1.945312 -25.007812 1.492188 -25.066406 1.171875 -25.359375 C 0.859375 -25.648438 0.757812 -26.085938 0.875 -26.671875 C 0.875 -26.785156 0.929688 -27.015625 1.046875 -27.359375 C 1.390625 -28.171875 1.910156 -28.835938 2.609375 -29.359375 C 3.828125 -30.234375 5.050781 -30.234375 6.28125 -29.359375 L 6.359375 -29.28125 L 6.453125 -29.28125 C 6.859375 -28.988281 7.207031 -28.988281 7.5 -29.28125 L 9.15625 -30.9375 C 9.4375 -31.164062 9.664062 -31.191406 9.84375 -31.015625 C 10.019531 -30.847656 10.050781 -30.707031 9.9375 -30.59375 C 9.875 -30.125 9.726562 -29.425781 9.5 -28.5 C 9.207031 -27.394531 9.09375 -26.375 9.15625 -25.4375 C 9.207031 -24.976562 9.492188 -24.773438 10.015625 -24.828125 C 10.890625 -24.953125 13.21875 -25.910156 17 -27.703125 C 17.226562 -27.703125 17.367188 -27.644531 17.421875 -27.53125 C 17.546875 -27.238281 17.40625 -26.976562 17 -26.75 C 13.976562 -25.238281 11.769531 -24.3125 10.375 -23.96875 Z M 2.96875 -26.3125 C 3.601562 -26.550781 4.269531 -26.875 4.96875 -27.28125 C 5.375 -27.5625 5.609375 -27.789062 5.671875 -27.96875 C 5.722656 -28.082031 5.644531 -28.179688 5.4375 -28.265625 C 5.238281 -28.359375 4.992188 -28.40625 4.703125 -28.40625 C 4.242188 -28.289062 3.894531 -28.175781 3.65625 -28.0625 C 2.957031 -27.539062 2.492188 -26.988281 2.265625 -26.40625 C 2.554688 -26.175781 2.789062 -26.144531 2.96875 -26.3125 Z M 2.96875 -26.3125 "/></g></g></g><g clip-path="url(#2726103d57)"><g fill="#ffffff" fill-opacity="1"><g transform="translate(176.087217, 65.765557)"><g><path d="M 1.65625 -32.9375 C 1.363281 -33.050781 1.21875 -33.3125 1.21875 -33.71875 C 1.21875 -34.363281 1.476562 -34.6875 2 -34.6875 C 2.40625 -34.6875 2.609375 -34.453125 2.609375 -33.984375 C 2.609375 -33.867188 2.582031 -33.8125 2.53125 -33.8125 C 2.53125 -33.519531 2.441406 -33.285156 2.265625 -33.109375 C 2.085938 -32.941406 1.882812 -32.882812 1.65625 -32.9375 Z M -6.796875 7.84375 C -7.609375 8.070312 -8.316406 7.984375 -8.921875 7.578125 C -9.535156 7.171875 -9.875 6.5625 -9.9375 5.75 C -10.050781 4.707031 -9.960938 3.398438 -9.671875 1.828125 C -9.328125 0.0234375 -8.804688 -1.6875 -8.109375 -3.3125 C -5.835938 -8.945312 -3.046875 -13.796875 0.265625 -17.859375 C 0.898438 -18.671875 1.21875 -19.515625 1.21875 -20.390625 C 1.164062 -20.679688 1.140625 -21.492188 1.140625 -22.828125 L 1.046875 -26.84375 C 1.046875 -26.957031 1.0625 -27.070312 1.09375 -27.1875 C 1.125 -27.300781 1.140625 -27.414062 1.140625 -27.53125 C 1.253906 -27.9375 1.425781 -28.113281 1.65625 -28.0625 C 1.945312 -28.0625 2.148438 -27.914062 2.265625 -27.625 C 2.441406 -27.15625 2.585938 -26.164062 2.703125 -24.65625 C 2.703125 -24.363281 2.710938 -23.898438 2.734375 -23.265625 C 2.765625 -22.628906 2.78125 -22.164062 2.78125 -21.875 L 2.875 -21.703125 L 3.046875 -21.53125 C 3.222656 -21.40625 3.367188 -21.460938 3.484375 -21.703125 C 5.285156 -23.617188 7.144531 -25.273438 9.0625 -26.671875 L 10.625 -27.703125 C 10.6875 -27.765625 10.742188 -27.78125 10.796875 -27.75 C 10.859375 -27.71875 10.890625 -27.675781 10.890625 -27.625 C 10.953125 -27.5625 10.984375 -27.445312 10.984375 -27.28125 C 10.398438 -26.8125 9.929688 -26.460938 9.578125 -26.234375 C 7.492188 -24.660156 5.578125 -22.972656 3.828125 -21.171875 C 3.191406 -20.421875 2.875 -19.664062 2.875 -18.90625 C 2.757812 -14.894531 2.585938 -12.222656 2.359375 -10.890625 C 1.484375 -5.953125 0.4375 -1.914062 -0.78125 1.21875 C -1.476562 3.019531 -2.554688 4.644531 -4.015625 6.09375 C -4.878906 6.96875 -5.804688 7.550781 -6.796875 7.84375 Z M -7.0625 7.140625 C -6.539062 7.085938 -6.078125 6.882812 -5.671875 6.53125 C -5.140625 6.125 -4.671875 5.660156 -4.265625 5.140625 C -2.867188 3.515625 -1.851562 1.507812 -1.21875 -0.875 C -0.226562 -4.1875 0.46875 -8.050781 0.875 -12.46875 C 0.988281 -13.5625 1.046875 -15.300781 1.046875 -17.6875 C 0.816406 -17.570312 0.671875 -17.484375 0.609375 -17.421875 C 0.546875 -17.304688 0.398438 -17.132812 0.171875 -16.90625 C -3.140625 -12.84375 -5.8125 -8.078125 -7.84375 -2.609375 C -8.59375 -0.578125 -9.085938 1.335938 -9.328125 3.140625 C -9.492188 3.835938 -9.519531 4.648438 -9.40625 5.578125 C -9.175781 6.972656 -8.394531 7.492188 -7.0625 7.140625 Z M -7.0625 7.140625 "/></g></g></g></g></svg>